PathFileType	4	(X/Y/Z)	outputs\dynamic_markers.trc
DataRate	CameraRate	NumFrames	NumMarkers	Units	OrigDataRate	OrigDataStartFrame	OrigNumFrames
360.000000	360.000000	4	45	m	360.000000	306	612
Frame#	Time	C7			CLAV			LANK			LASI			LBHD			LELB			LFHD			LFIN			LFRM			LHEE			LKNE			LMANK			LMELB			LMKNE			LPSI			LSHO			LTHI			LTIB			LTOE			LUPA			LWRA			LWRB			RANK			RASI			RBAK			RBHD			RELB			RFHD			RFIN			RFRM			RHEE			RKNE			RMANK			RMELB			RMKNE			RPSI			RSHO			RTHI			RTIB			RTOE			RUPA			RWRA			RWRB			STRN			T10			
		X1	Y1	Z1	X2	Y2	Z2	X3	Y3	Z3	X4	Y4	Z4	X5	Y5	Z5	X6	Y6	Z6	X7	Y7	Z7	X8	Y8	Z8	X9	Y9	Z9	X10	Y10	Z10	X11	Y11	Z11	X12	Y12	Z12	X13	Y13	Z13	X14	Y14	Z14	X15	Y15	Z15	X16	Y16	Z16	X17	Y17	Z17	X18	Y18	Z18	X19	Y19	Z19	X20	Y20	Z20	X21	Y21	Z21	X22	Y22	Z22	X23	Y23	Z23	X24	Y24	Z24	X25	Y25	Z25	X26	Y26	Z26	X27	Y27	Z27	X28	Y28	Z28	X29	Y29	Z29	X30	Y30	Z30	X31	Y31	Z31	X32	Y32	Z32	X33	Y33	Z33	X34	Y34	Z34	X35	Y35	Z35	X36	Y36	Z36	X37	Y37	Z37	X38	Y38	Z38	X39	Y39	Z39	X40	Y40	Z40	X41	Y41	Z41	X42	Y42	Z42	X43	Y43	Z43	X44	Y44	Z44	X45	Y45	Z45	

307	0.85	0.2164356708526611	1.443040370941162	0.0710030272603035	0.1860216408967972	1.345380902290344	0.229385033249855	0.3332203030586243	0.2823234498500824	0.5418111681938171	0.4783153235912323	0.963824450969696	0.2104851305484772	0.1660089641809464	1.563600301742554	0.1019257828593254	0.5297273993492126	1.12779700756073	0.3808512687683105	0.2804893851280212	1.59279453754425	0.2043917030096054	0.1789314299821854	1.209801554679871	0.3724950551986694	0.3784429430961609	1.167989373207092	0.3799555003643036	0.3134160935878754	0.2711117267608643	0.4598820507526398	0.2932273745536804	0.7665339708328247	0.5680796504020691	0.2371537685394287	0.278754860162735	0.4929385781288147	0.5291420221328735	1.079358220100403	0.2970601916313171	0.2005841284990311	0.7516354918479919	0.5044474601745605	0.5356333255767822	0.9282808303833008	-0.01014779973775148	0.3287999927997589	1.434229373931885	0.2494765967130661	0.4019071161746979	0.8109630942344666	0.4640847444534302	0.3322932124137878	0.6585134863853455	0.5661836266517639	0.2127029597759247	0.2850614190101624	0.6608939170837402	0.4691715240478516	1.261569023132324	0.3505600094795227	0.2720085382461548	1.179997563362122	0.3220079839229584	0.257767915725708	1.126094818115234	0.3843455910682678	0.0223843976855278	0.1004914119839668	0.105385385453701	0.2837861180305481	0.9141735434532166	0.1052640378475189	0.2216868251562119	1.197551488876343	-0.06130366772413254	0.08060777187347412	1.558168053627014	0.198489636182785	-0.1553045660257339	1.123855948448181	-0.01160111557692289	0.1870950162410736	1.590806484222412	0.3073188960552216	0.03548258915543556	1.198033809661865	0.2572379112243652	-0.0608750581741333	1.157090902328491	0.1266625821590424	0.08545057475566864	0.06611134111881256	0.04255445674061775	0.06055314093828201	0.5482273101806641	0.2775265872478485	0.1140658184885979	0.04783777147531509	0.1458292901515961	-0.08675046265125275	1.066650986671448	-0.06445879489183426	0.1614221781492233	0.4932665228843689	0.3239227533340454	0.4661046862602234	0.917441725730896	-0.04853026941418648	0.06456348299980164	1.39208459854126	0.04756760969758034	0.1701820194721222	0.7502303123474121	0.1115089729428291	0.02849805913865566	0.3949526250362396	0.2209400981664658	0.03665104135870934	0.07525531947612762	0.2675144970417023	-0.07578162848949432	1.247335910797119	0.03805815428495407	0.04329594969749451	1.162119150161743	0.1844784766435623	-0.02553089894354343	1.128754496574402	0.2226814329624176	0.2413071841001511	1.109347820281982	0.2300498187541962	0.4171914458274841	1.140127778053284	-0.03549241274595261	
308	0.8527777777777779	0.2165715396404266	1.44015634059906	0.07081753015518188	0.1868025213479996	1.341951608657837	0.2291270643472672	0.3380346894264221	0.272206723690033	0.5503890514373779	0.4821444749832153	0.9607783555984497	0.2099143415689468	0.1661110371351242	1.560611009597778	0.1021070331335068	0.5340955257415771	1.128034114837646	0.3802217245101929	0.2805620431900024	1.589632034301758	0.2047128528356552	0.1804754436016083	1.199975728988647	0.375309556722641	0.3816885650157928	1.163776159286499	0.3804917931556702	0.3166702091693878	0.2601115107536316	0.4688390493392944	0.303681343793869	0.7570840120315552	0.5690823793411255	0.241468071937561	0.2687925100326538	0.5033159852027893	0.5336061120033264	1.079777479171753	0.2965377271175385	0.2098279297351837	0.7422631978988647	0.5081481337547302	0.5376213788986206	0.9264044165611267	-0.01124430261552334	0.3290479481220245	1.431809663772583	0.2493989765644073	0.4104050397872925	0.8038113713264465	0.4638113379478455	0.3420442044734955	0.64890056848526	0.5682260990142822	0.2200576663017273	0.2776933014392853	0.6715978980064392	0.4720515608787537	1.261171340942383	0.3493697047233582	0.273972749710083	1.172464609146118	0.3239656686782837	0.2619582414627075	1.118064045906067	0.3864799439907074	0.02278125658631325	0.1006537675857544	0.1056123077869415	0.2869323194026947	0.9113855361938477	0.1054236441850662	0.2240524739027023	1.194294810295105	-0.06151080876588821	0.0807529017329216	1.554788947105408	0.1986083984375	-0.1526261270046234	1.118049502372742	-0.01397300325334072	0.1870779097080231	1.587245464324951	0.3076252639293671	0.03545134514570236	1.187214374542236	0.2566917240619659	-0.05893967300653458	1.148701190948486	0.1253534257411957	0.08606023341417313	0.06622136384248734	0.04290813207626343	0.06161369383335114	0.5486574769020081	0.2790277898311615	0.1142939776182175	0.04765116795897484	0.1459731459617615	-0.08314454555511475	1.062633633613586	-0.0676688477396965	0.1626453399658203	0.4934667348861694	0.3248326182365417	0.4677988290786743	0.915446400642395	-0.04939230903983116	0.06480152159929276	1.387949585914612	0.04755532369017601	0.1722626239061356	0.7488890886306763	0.1116189286112785	0.02954906225204468	0.3950428366661072	0.2215840220451355	0.03667064756155014	0.07511220127344131	0.2676601409912109	-0.07438339293003082	1.242232322692871	0.03628324717283249	0.04446880146861076	1.15318751335144	0.1842088103294373	-0.02419468015432358	1.118145942687988	0.2212998569011688	0.2433114498853683	1.10578989982605	0.2294737100601196	0.4189775884151459	1.137984156608582	-0.03520853444933891	
309	0.8555555555555556	0.2167620956897736	1.437214136123657	0.07061799615621567	0.1875258088111877	1.338599443435669	0.229049876332283	0.3434745967388153	0.2622222900390625	0.5590291619300842	0.4858957231044769	0.9574671983718872	0.209251344203949	0.1662006676197052	1.557551383972168	0.1022831648588181	0.5383510589599609	1.128422617912292	0.3799850940704346	0.2806248068809509	1.586488723754883	0.2049138098955154	0.1820733994245529	1.190066695213318	0.3783415555953979	0.3849169611930847	1.159926056861877	0.381429135799408	0.320332407951355	0.2493252903223038	0.4780812561511993	0.3141756057739258	0.7477449774742126	0.5698851346969604	0.2458068579435349	0.2592374980449677	0.513852059841156	0.5381331443786621	1.08019232749939	0.2962470948696136	0.2194533497095108	0.7330095171928406	0.5113593935966492	0.5397059321403503	0.9246033430099487	-0.01232584659010172	0.329179972410202	1.429508090019226	0.2491407841444016	0.4185842275619507	0.7967758178710938	0.4633001089096069	0.3518607020378113	0.639123260974884	0.5698322653770447	0.2277858406305313	0.2706637382507324	0.6823779344558716	0.4746908843517303	1.260981917381287	0.3482722640037537	0.2760108709335327	1.164950609207153	0.3262362480163574	0.2662054896354675	1.110318779945374	0.3889656066894531	0.02312840521335602	0.1007314324378967	0.1058288663625717	0.289142370223999	0.9089735746383667	0.1056548580527306	0.2262127995491028	1.191024899482727	-0.06170108169317245	0.08088666945695877	1.551347732543945	0.198803573846817	-0.1499998271465302	1.112372994422913	-0.0161876454949379	0.1872100532054901	1.583613753318787	0.3077966868877411	0.03663088381290436	1.175301313400269	0.257482498884201	-0.05693533644080162	1.140246987342834	0.1242668107151985	0.08654557168483734	0.06627985090017319	0.04319379851222038	0.0626533180475235	0.5490906238555908	0.2805014252662659	0.1145338416099548	0.0474286824464798	0.1462119817733765	-0.07999920099973679	1.058428287506104	-0.07054483890533447	0.1638546884059906	0.4935497641563416	0.3258366584777832	0.4695764183998108	0.9135177135467529	-0.05009737983345985	0.06505616009235382	1.38367486000061	0.04764148592948914	0.174766480922699	0.7474743127822876	0.1116683557629585	0.03053608722984791	0.3952004313468933	0.2221449315547943	0.03665323927998543	0.07498960942029953	0.2677942514419556	-0.07269225269556046	1.237051367759705	0.03458535671234131	0.04547988250851631	1.144135594367981	0.1840316355228424	-0.02264776639640331	1.107471227645874	0.22003473341465	0.2453961968421936	1.102328896522522	0.2289298623800278	0.4208319783210754	1.135623097419739	-0.03497737273573875	
310	0.8583333333333334	0.2169587016105652	1.435272693634033	0.07049971073865891	0.187999814748764	1.336386442184448	0.2290081083774567	0.3471768498420715	0.2558673322200775	0.5649499893188477	0.4884303510189056	0.9554343223571777	0.2089887112379074	0.166294276714325	1.555511951446533	0.1024192795157433	0.5411105155944824	1.128724455833435	0.3800020515918732	0.2807446718215942	1.584474682807922	0.2050008624792099	0.183123990893364	1.183467030525208	0.3804467916488647	0.3869848549365997	1.157483100891113	0.3821283280849457	0.3230442702770233	0.2423454970121384	0.4843730926513672	0.3212924897670746	0.7416086792945862	0.5701884627342224	0.2490738183259964	0.2529946863651276	0.5209876894950867	0.5408971309661865	1.080502152442932	0.2962824106216431	0.2257219403982162	0.7270205020904541	0.5132542848587036	0.541014552116394	0.923284113407135	-0.01309606339782476	0.3293271362781525	1.427849769592285	0.2490315735340118	0.4243178367614746	0.7922418713569641	0.4627866744995117	0.3582842648029327	0.63288414478302	0.5709888339042664	0.2331552952528	0.2661043703556061	0.6895246505737305	0.4764001369476318	1.260873079299927	0.3475612998008728	0.2774886786937714	1.160118341445923	0.3279944360256195	0.2691704034805298	1.10527765750885	0.3906763792037964	0.02335353940725327	0.1007506400346756	0.1059607937932014	0.290633887052536	0.9071711301803589	0.1056072562932968	0.2277706414461136	1.188844561576843	-0.06189808249473572	0.08103065192699432	1.549031257629395	0.19892218708992	-0.1483146399259567	1.108574867248535	-0.01771732605993748	0.1873268187046051	1.581296682357788	0.3079414367675781	0.03916345536708832	1.166847467422485	0.2571046948432922	-0.05564945563673973	1.134704113006592	0.1237853169441223	0.08679904788732529	0.06630891561508179	0.04336941987276077	0.06340694427490234	0.5493288636207581	0.2814346849918365	0.1146420836448669	0.04728174954652786	0.1463480740785599	-0.07765413075685501	1.055854916572571	-0.07258647680282593	0.164440393447876	0.4936290383338928	0.3267344236373901	0.4708069562911987	0.9121037721633911	-0.0505564920604229	0.06525406241416931	1.380831122398376	0.04766182973980904	0.175980418920517	0.7466134428977966	0.1117395386099815	0.03101822733879089	0.3953030407428741	0.2224911898374557	0.03654779493808746	0.07494094222784042	0.2678634822368622	-0.07166595011949539	1.233662247657776	0.03350137919187546	0.04610535502433777	1.138067722320557	0.1839396208524704	-0.02185976505279541	1.100422143936157	0.2191366106271744	0.2468288689851761	1.100079774856567	0.2285957336425781	0.4221145510673523	1.134170651435852	-0.03484630584716797	
